<svg viewBox="0 0 1021.83 1012.49" fill="none" xmlns="http://www.w3.org/2000/svg">
<path d="M899.79 1012.49C899.21 695.26 899.21 317.22 899.79 0C900.37 317.23 900.37 695.27 899.79 1012.49Z" fill="#F37D2C"/>
<path d="M163.86 930.67C163.25 634.21 163.24 301.65 163.86 5.18994C164.48 301.65 164.47 634.21 163.86 930.67Z" fill="#F37D2C"/>
<path d="M1021.83 853.05C701.67 853.63 320.14 853.63 0 853.05C320.16 852.47 701.69 852.47 1021.83 853.05Z" fill="#F37D2C"/>
<path d="M554.89 74.8599C397.97 75.4699 221.95 75.4799 65.04 74.8599C221.96 74.2399 397.98 74.2499 554.89 74.8599Z" fill="#F37D2C"/>
<path d="M967.13 277.98C677.3 278.59 352.17 278.6 62.34 277.98C352.17 277.36 677.3 277.37 967.13 277.98Z" fill="#F37D2C"/>
</svg>
