<svg viewBox="0 0 1021.83 1012.49" fill="none" xmlns="http://www.w3.org/2000/svg">
<path d="M899.8 1012.49C899.22 695.26 899.22 317.22 899.8 0C900.38 317.23 900.38 695.27 899.8 1012.49Z" fill="#F37D2C"/>
<path d="M163.87 930.67C163.26 681.66 163.25 402.33 163.87 153.32C164.49 402.33 164.48 681.66 163.87 930.67Z" fill="#F37D2C"/>
<path d="M1021.83 853.06C701.67 853.64 320.14 853.64 0 853.06C320.16 852.48 701.69 852.48 1021.83 853.06Z" fill="#F37D2C"/>
<path d="M967.13 74.8601C790.99 75.4701 593.41 75.4801 417.28 74.8601C593.42 74.2401 791 74.2501 967.13 74.8601Z" fill="#F37D2C"/>
<path d="M967.13 277.98C677.3 278.59 352.17 278.6 62.34 277.98C352.17 277.36 677.3 277.37 967.13 277.98Z" fill="#F37D2C"/>
</svg>
