<svg viewBox="0 0 1021.83 962.49" fill="none" xmlns="http://www.w3.org/2000/svg">
<path d="M899.8 962.49C899.28 657.09 899.13 304.77 899.8 0C900.47 304.58 900.32 657.3 899.8 962.49Z" fill="#F37D2C"/>
<path d="M163.87 950.67C163.26 695.25 163.25 408.74 163.87 153.32C164.49 408.74 164.48 695.25 163.87 950.67Z" fill="#F37D2C"/>
<path d="M1021.83 853.06C701.67 853.64 320.14 853.64 0 853.06C320.16 852.48 701.69 852.48 1021.83 853.06Z" fill="#F37D2C"/>
<path d="M967.13 74.8602C790.99 75.4702 593.41 75.4802 417.28 74.8602C593.42 74.2402 791 74.2502 967.13 74.8602Z" fill="#F37D2C"/>
<path d="M967.13 277.98C677.3 278.59 352.17 278.6 62.34 277.98C352.17 277.36 677.3 277.37 967.13 277.98Z" fill="#F37D2C"/>
</svg>
