<svg viewBox="0 0 1021.83 1012.49" fill="none" xmlns="http://www.w3.org/2000/svg">
<path d="M899.79 1012.49C899.21 695.26 899.21 317.22 899.79 0C900.37 317.23 900.37 695.27 899.79 1012.49Z" fill="#F37D2C"/>
<path d="M163.86 930.67C163.25 681.66 163.24 402.33 163.86 153.32C164.48 402.33 164.47 681.66 163.86 930.67Z" fill="#F37D2C"/>
<path d="M1021.83 853.06C701.67 853.64 320.14 853.64 0 853.06C320.16 852.48 701.69 852.48 1021.83 853.06Z" fill="#F37D2C"/>
<path d="M967.13 74.8599C810.21 75.4699 634.19 75.4799 477.28 74.8599C634.2 74.2399 810.22 74.2499 967.13 74.8599Z" fill="#F37D2C"/>
<path d="M967.13 277.98C677.3 278.59 352.17 278.6 62.34 277.98C352.17 277.36 677.3 277.37 967.13 277.98Z" fill="#F37D2C"/>
</svg>
