<svg width="1920" height="1012" viewBox="0 0 1920 1012" fill="none" xmlns="http://www.w3.org/2000/svg">

<g id="Desktop">

<g id="contact test 1">
<g id="Group">
<g id="Layer_1">
<g id="Group_2">
<path id="Vector" d="M1876.32 -138.81C1980.88 380.97 1644.28 887.1 1124.5 991.66C604.71 1096.22 98.5903 759.61 -5.96973 239.83" stroke="#F37D2C" stroke-miterlimit="10"/>
<path id="Vector_2" d="M1891.29 38.68C1937.81 38.68 1981.55 56.8 2014.45 89.69C2047.35 122.59 2065.46 166.33 2065.46 212.85C2065.46 259.37 2047.34 303.11 2014.45 336.01C1981.55 368.91 1937.81 387.02 1891.29 387.02C1844.77 387.02 1801.03 368.9 1768.13 336.01C1735.23 303.11 1717.12 259.38 1717.12 212.85C1717.12 166.32 1735.24 122.59 1768.13 89.69C1801.03 56.79 1844.77 38.68 1891.29 38.68ZM1891.29 37.68C1794.55 37.68 1716.12 116.11 1716.12 212.85C1716.12 309.59 1794.55 388.02 1891.29 388.02C1988.03 388.02 2066.46 309.59 2066.46 212.85C2066.46 116.11 1988.03 37.68 1891.29 37.68Z" fill="#F37D2C"/>
<path id="Vector_4" d="M1843.93 359.88L1839.2 368.38C1837.07 372.2 1832.71 374.21 1828.42 373.33L1814.95 370.57L1826.87 377.73C1830.43 379.87 1832.29 383.98 1831.54 388.06L1829.45 399.46L1836.01 388.5C1837.99 385.19 1841.7 383.31 1845.54 383.66L1857.82 384.79L1848.26 379.97C1844.55 378.1 1842.4 374.13 1842.84 370.01L1843.94 359.87L1843.93 359.88Z" fill="#F37D2C"/>
<path id="Vector_3" d="M344.04 109.3C422.17 375.25 321.97 679.45 102.15 847.97C30.1101 904.54 -53.3298 946.38 -141.59 970.78C226.38 870.95 449.12 475.74 344.04 109.3Z" fill="#F37D2C"/>
<path id="Vector_5" d="M264.85 665.66L250.67 681.95C242.30 691.56 227.72 692.55 218.14 684.16L200.45 668.67L222.16 699.00C225.88 704.20 226.33 711.06 223.33 716.70L209.20 743.20L222.58 731.23C230.88 723.81 243.29 723.38 252.08 730.22L277.79 750.23L252.54 716.88C248.93 712.11 248.12 705.78 250.43 700.26L264.86 665.68L264.85 665.66Z" fill="#F37D2C"/>
</g>
</g>
</g>
</g>
</g>
</svg>
