<svg width="1920" height="1153" viewBox="0 0 1920 1153" fill="none" xmlns="http://www.w3.org/2000/svg">
<g id="Desktop" clip-path="url(#clip0_0_1)">
<g id="home test 1" clip-path="url(#clip1_0_1)">
<g id="Group" opacity="0.6">
<g id="Group_2">
<path id="Vector" d="M1587.79 -207.52C1692.35 312.26 1355.75 818.39 835.97 922.95C316.18 1027.51 -189.95 690.91 -294.51 171.13" stroke="#F37D2C" stroke-miterlimit="10"/>
<path id="Vector_2" d="M176.57 730.63C228.37 730.63 270.51 772.77 270.51 824.57C270.51 876.37 228.37 918.51 176.57 918.51C124.77 918.51 82.63 876.37 82.63 824.57C82.63 772.77 124.77 730.63 176.57 730.63ZM176.57 729.63C124.13 729.63 81.63 772.14 81.63 824.57C81.63 877 124.14 919.51 176.57 919.51C229 919.51 271.51 877 271.51 824.57C271.51 772.14 229 729.63 176.57 729.63Z" fill="#F37D2C"/>
<path id="Vector_3" d="M1602.76 -30.02C1649.28 -30.02 1693.02 -11.9 1725.92 20.99C1758.82 53.89 1776.93 97.62 1776.93 144.15C1776.93 190.68 1758.81 234.41 1725.92 267.31C1693.02 300.21 1649.28 318.32 1602.76 318.32C1556.24 318.32 1512.5 300.2 1479.6 267.31C1446.7 234.41 1428.59 190.67 1428.59 144.15C1428.59 97.63 1446.71 53.89 1479.6 20.99C1512.5 -11.91 1556.24 -30.02 1602.76 -30.02ZM1602.76 -31.02C1506.02 -31.02 1427.59 47.41 1427.59 144.15C1427.59 240.89 1506.02 319.32 1602.76 319.32C1699.5 319.32 1777.93 240.89 1777.93 144.15C1777.93 47.41 1699.5 -31.02 1602.76 -31.02Z" fill="#F37D2C"/>
</g>
</g>
</g>
</g>
<defs>
<clipPath id="clip0_0_1">
<rect width="1920" height="4496" fill="white"/>
</clipPath>
<clipPath id="clip1_0_1">
<rect width="1920" height="4495.38" fill="white"/>
</clipPath>
</defs>
</svg>
