<svg width="178" height="89" viewBox="0 0 178 89" fill="none" xmlns="http://www.w3.org/2000/svg">
<g id="Desktop" clip-path="url(#clip0_0_1)">
<g id="home test 1" clip-path="url(#clip1_0_1)">
<g id="Group">
<g id="Group_2">
<g id="Group_3">
<path id="Vector" d="M88.63 88.1599C40.03 88.1599 0.5 68.4998 0.5 44.3298C0.5 20.1598 40.04 0.5 88.63 0.5C137.22 0.5 176.76 20.1598 176.76 44.3298C176.76 68.4998 137.22 88.1599 88.63 88.1599ZM88.63 1.5C40.59 1.5 1.5 20.7098 1.5 44.3298C1.5 67.9498 40.59 87.1599 88.63 87.1599C136.67 87.1599 175.76 67.9498 175.76 44.3298C175.76 20.7098 136.67 1.5 88.63 1.5Z" fill="#1E1E3C" stroke="black" stroke-miterlimit="10"/>
<g id="Group_4">
<g id="Group_5">
<path id="Vector_2" d="M76.39 87.6899L75.45 87.3499C75.48 87.2599 75.51 87.1698 75.53 87.0798C78.81 77.2598 80.82 65.8699 81.36 54.1199C81.4 53.4699 81.4199 52.8199 81.4399 52.1699C81.4399 51.8599 81.46 51.55 81.46 51.24C81.48 50.9 81.49 50.58 81.49 50.27C81.51 49.38 81.52 48.4899 81.52 47.5999C81.52 46.5299 81.52 45.4699 81.48 44.3999C81.48 44.2799 81.48 44.16 81.48 44.04C81.09 28.37 78.2199 13.7801 73.1799 1.82007L74.1 1.42993C79.19 13.5099 82.09 28.23 82.48 43.99C82.48 44.1 82.48 44.2499 82.48 44.3799C82.51 45.4399 82.52 46.5098 82.52 47.5898C82.52 48.4898 82.52 49.39 82.49 50.28C82.49 50.6 82.49 50.94 82.46 51.27C82.46 51.56 82.4599 51.8799 82.4399 52.1799C82.4199 52.8599 82.4 53.5199 82.36 54.1699C81.82 65.9999 79.79 77.4799 76.49 87.3599C76.47 87.4499 76.43 87.5599 76.39 87.6799V87.6899Z" fill="#1E1E3C" stroke="black" stroke-miterlimit="10"/>
<path id="Vector_3" d="M58.1 84.8L57.1 84.7C58.14 73.8699 56.5699 63.9001 52.4299 55.0701C42.8099 34.5101 22.05 25.3 13.58 22.29L13.91 21.3499C22.51 24.3999 43.55 33.7399 53.34 54.6499C57.55 63.6499 59.15 73.79 58.1 84.8Z" fill="#1E1E3C" stroke="black" stroke-miterlimit="10"/>
<path id="Vector_4" d="M36.59 59.0898C24.85 59.0898 17.0499 53.4299 16.9399 53.3499L17.54 52.55C17.69 52.66 32.9 63.6699 52.75 54.3599L53.17 55.27C47.14 58.1 41.52 59.0898 36.59 59.0898Z" fill="#1E1E3C" stroke="black" stroke-miterlimit="10"/>
<path id="Vector_5" d="M82.12 50.8101C65.67 48.1201 56.09 40.07 50.95 33.8C45.37 26.99 43.71 20.9099 43.65 20.6599L44.62 20.3999C44.68 20.6399 51.45 44.7701 82.29 49.8201L82.13 50.8101H82.12Z" fill="#1E1E3C" stroke="black" stroke-miterlimit="10"/>
</g>
<g id="Group_6">
<path id="Vector_6" d="M100.87 87.6899C100.83 87.5699 100.79 87.4599 100.76 87.3499C97.09 76.3699 95.01 63.55 94.77 50.29C94.75 49.4 94.74 48.4999 94.74 47.6099C94.74 30.7299 97.73 14.33 103.17 1.44995L104.09 1.83984C98.71 14.5998 95.74 30.8599 95.74 47.6099C95.74 48.4999 95.74 49.39 95.77 50.27C96.01 63.43 98.06 76.1501 101.71 87.0601C101.74 87.1801 101.77 87.2599 101.8 87.3499L100.86 87.6899H100.87Z" fill="#1E1E3C" stroke="black" stroke-miterlimit="10"/>
<path id="Vector_7" d="M119.16 84.8C118.44 77.2701 118.96 70.09 120.72 63.45L120.69 63.4199L120.81 63.0999C120.84 62.9899 120.88 62.8199 120.94 62.6099C121.72 59.8599 122.72 57.1899 123.91 54.6499C124.75 52.8499 125.69 51.12 126.7 49.48L126.77 49.3599C137.44 31.9899 155.9 23.9899 163.34 21.3499L163.67 22.29C156.35 24.88 138.2 32.75 127.69 49.76L127.61 49.8899C126.6 51.5199 125.65 53.2601 124.81 55.0701C123.65 57.5601 122.67 60.1899 121.9 62.8899C121.87 62.9899 121.85 63.0699 121.83 63.1499L121.99 63.3101L121.75 63.55L121.67 63.79C119.96 70.3 119.45 77.33 120.16 84.71L119.16 84.8101V84.8Z" fill="#1E1E3C" stroke="black" stroke-miterlimit="10"/>
<path id="Vector_8" d="M140.66 59.0898C135.73 59.0898 130.11 58.09 124.08 55.27L124.5 54.3599C144.35 63.6599 159.56 52.66 159.71 52.55L160.31 53.3499C160.2 53.4299 152.39 59.0898 140.66 59.0898Z" fill="#1E1E3C" stroke="black" stroke-miterlimit="10"/>
<path id="Vector_9" d="M95.13 50.8101L94.97 49.8201C111.08 47.1801 120.46 39.33 125.5 33.2C130.96 26.56 132.63 20.4599 132.64 20.3899L133.61 20.6499C133.54 20.8999 126.63 45.64 95.14 50.8L95.13 50.8101Z" fill="#1E1E3C" stroke="black" stroke-miterlimit="10"/>
</g>
</g>
<path id="Vector_10" d="M114.26 26.23L117.8 26.6799L114.26 27.1299C112.86 27.3099 111.75 28.39 111.54 29.78L111.08 32.8298L110.62 29.78C110.41 28.39 109.3 27.2999 107.9 27.1299L104.36 26.6799L107.9 26.23C109.3 26.05 110.41 24.9698 110.62 23.5798L111.08 20.53L111.54 23.5798C111.75 24.9698 112.86 26.06 114.26 26.23Z" fill="#1E1E3C" stroke="black" stroke-miterlimit="10"/>
<path id="Vector_11" d="M67.8099 26.1599L71.35 26.6099L67.8099 27.0601C66.4099 27.2401 65.3 28.32 65.09 29.71L64.63 32.76L64.17 29.71C63.96 28.32 62.85 27.2301 61.45 27.0601L57.91 26.6099L61.45 26.1599C62.85 25.9799 63.96 24.9 64.17 23.51L64.63 20.46L65.09 23.51C65.3 24.9 66.4099 25.9899 67.8099 26.1599Z" fill="#1E1E3C" stroke="black" stroke-miterlimit="10"/>
<path id="Vector_12" d="M34.9399 45.3101L38.48 45.76L34.9399 46.21C33.5399 46.39 32.43 47.4699 32.22 48.8599L31.76 51.9099L31.2999 48.8599C31.0899 47.4699 29.98 46.38 28.58 46.21L25.04 45.76L28.58 45.3101C29.98 45.1301 31.0899 44.0499 31.2999 42.6599L31.76 39.6099L32.22 42.6599C32.43 44.0499 33.5399 45.1401 34.9399 45.3101Z" fill="#1E1E3C" stroke="black" stroke-miterlimit="10"/>
<path id="Vector_13" d="M146.76 45.3101L150.3 45.76L146.76 46.21C145.36 46.39 144.25 47.4699 144.04 48.8599L143.58 51.9099L143.12 48.8599C142.91 47.4699 141.8 46.38 140.4 46.21L136.86 45.76L140.4 45.3101C141.8 45.1301 142.91 44.0499 143.12 42.6599L143.58 39.6099L144.04 42.6599C144.25 44.0499 145.36 45.1401 146.76 45.3101Z" fill="#1E1E3C" stroke="black" stroke-miterlimit="10"/>
<path id="Vector_14" d="M75.21 48.75L77.66 48.8999C79.5 49.0099 81.15 47.8499 81.5 46.1899L81.97 43.97C81.97 43.97 82.03 51.1899 81.87 54.1699L81.36 52.6799C81.06 51.7999 80.38 51.0799 79.48 50.6699L75.21 48.75Z" fill="#1E1E3C" stroke="black" stroke-miterlimit="10"/>
<path id="Vector_15" d="M133.12 57.8101C133.12 57.8101 130.26 57.51 128.01 57.2C126.4 56.98 124.81 57.68 124 58.98L121.28 63.3101C121.28 63.3101 123.33 55.1199 127.2 49.6099L126.62 51.8599C126.24 53.3499 126.91 54.9 128.32 55.73C129.97 56.7 132.06 57.7901 133.12 57.8101Z" fill="#1E1E3C" stroke="black" stroke-miterlimit="10"/>
</g>
</g>
</g>
</g>
</g>
<defs>
<clipPath id="clip0_0_1">
<rect width="1920" height="4496" fill="white" transform="translate(-1007.89 -2098.3)"/>
</clipPath>
<clipPath id="clip1_0_1">
<rect width="1920" height="4495.38" fill="white" transform="translate(-1007.89 -2098.3)"/>
</clipPath>
</defs>
</svg>
