<svg width="240" height="133" viewBox="0 0 240 133" fill="none" xmlns="http://www.w3.org/2000/svg">
<g id="Desktop" clip-path="url(#clip0_0_1)">
<g id="home test 1" clip-path="url(#clip1_0_1)">
<g id="Group">
<g id="Group_2">
<g id="Clip path group">
<mask id="mask0_0_1" style="mask-type:luminance" maskUnits="userSpaceOnUse" x="0" y="0" width="240" height="133">
<g id="clippath-2">
<path id="Vector" d="M239.67 0H0V132.38H239.67V0Z" fill="white"/>
</g>
</mask>
<g mask="url(#mask0_0_1)">
<g id="Group_3">
<g id="Group_4">
<path id="Vector_2" d="M111.38 164.02C63.41 164.02 24.39 144.18 24.39 119.79C24.39 95.4 63.41 75.5601 111.38 75.5601C159.35 75.5601 198.37 95.4 198.37 119.79C198.37 144.18 159.35 164.02 111.38 164.02ZM111.38 76.5C63.93 76.5 25.33 95.92 25.33 119.79C25.33 143.66 63.93 163.08 111.38 163.08C158.83 163.08 197.43 143.66 197.43 119.79C197.43 95.92 158.83 76.5 111.38 76.5Z" fill="#959595"/>
<path id="Vector_3" d="M111.38 164.02C77.31 164.02 49.59 144.18 49.59 119.79C49.59 95.4 77.31 75.5601 111.38 75.5601C145.45 75.5601 173.17 95.4 173.17 119.79C173.17 144.18 145.45 164.02 111.38 164.02ZM111.38 76.5C77.83 76.5 50.53 95.92 50.53 119.79C50.53 143.66 77.83 163.08 111.38 163.08C144.93 163.08 172.23 143.66 172.23 119.79C172.23 95.92 144.93 76.5 111.38 76.5Z" fill="#959595"/>
<path id="Vector_4" d="M111.38 164.02C87.39 164.02 67.87 144.18 67.87 119.79C67.87 95.4 87.39 75.5601 111.38 75.5601C135.37 75.5601 154.89 95.4 154.89 119.79C154.89 144.18 135.37 164.02 111.38 164.02ZM111.38 76.5C87.91 76.5 68.8099 95.92 68.8099 119.79C68.8099 143.66 87.91 163.08 111.38 163.08C134.85 163.08 153.95 143.66 153.95 119.79C153.95 95.92 134.85 76.5 111.38 76.5Z" fill="#959595"/>
<g id="Group_5">
<g id="Group_6">
<path id="Vector_5" d="M110.44 66.55C111.06 100.41 111.05 138.05 110.44 171.94C109.83 138.05 109.82 100.42 110.44 66.55Z" fill="#959595"/>
</g>
<g id="Group_7">
<path id="Vector_6" d="M197.9 118.49C142.47 119.1 80.29 119.11 24.86 118.49C80.29 117.87 142.47 117.88 197.9 118.49Z" fill="#959595"/>
</g>
<path id="Vector_7" d="M121.82 116.85L133.73 118.5L121.82 120.15C116.76 120.85 112.79 124.83 112.09 129.88L110.44 141.79L108.79 129.88C108.09 124.82 104.11 120.85 99.0599 120.15L87.15 118.5L99.0599 116.85C104.12 116.15 108.09 112.17 108.79 107.12L110.44 95.21L112.09 107.12C112.79 112.18 116.77 116.15 121.82 116.85Z" fill="#959595"/>
<path id="Vector_8" d="M49.38 122.74C49.74 124.93 50.41 127.99 51.49 129.22C51.49 129.22 51.1401 125.65 51.1801 122.93C51.2001 121.4 52.21 120.06 53.67 119.6L57.12 118.49L54.23 117.67C52.58 117.2 51.46 115.66 51.52 113.94C51.58 112.28 51.67 110.36 51.77 109.46L49.86 114.86C49.45 116.02 48.48 116.88 47.29 117.16L41.48 118.5L46.55 119.71C48.02 120.06 49.12 121.26 49.37 122.75L49.38 122.74Z" fill="#959595"/>
<path id="Vector_9" d="M139.62 86.1799C139.62 86.1799 129.31 78.41 120.39 76.5C120.39 76.5 134.84 77.71 143.97 82.71L135.42 80.3101C134.23 79.9801 133.46 81.53 134.45 82.27L139.63 86.1699L139.62 86.1799Z" fill="#959595"/>
</g>
</g>
</g>
</g>
</g>
</g>
</g>
</g>
</g>
<defs>
<clipPath id="clip0_0_1">
<rect width="1920" height="4496" fill="white" transform="translate(-1450.88 -2085.02)"/>
</clipPath>
<clipPath id="clip1_0_1">
<rect width="1920" height="4495.38" fill="white" transform="translate(-1450.88 -2085.02)"/>
</clipPath>
</defs>
</svg>
