<svg width="212" height="65" viewBox="0 0 212 65" fill="none" xmlns="http://www.w3.org/2000/svg">
<g id="Desktop" clip-path="url(#clip0_0_1)">
<g id="home test 1" clip-path="url(#clip1_0_1)">
<g id="Group">
<g id="Group_2">
<g id="Group_3">
<path id="Vector" d="M62.55 42.04C62.29 41.95 62 42.0901 61.92 42.3501C57.61 55.0401 45.7 63.5701 32.29 63.5701C15.04 63.5701 1.00995 49.54 1.00995 32.29C1.00995 15.04 15.04 1.01001 32.29 1.01001C45.93 1.01001 57.8999 9.71994 62.0699 22.6899C62.1499 22.9499 62.44 23.1 62.7 23.01C62.9599 22.93 63.11 22.6401 63.02 22.3801C58.71 9.00013 46.36 0 32.28 0C14.48 0 0 14.48 0 32.28C0 50.08 14.48 64.5601 32.28 64.5601C46.12 64.5601 58.41 55.7599 62.86 42.6699C62.95 42.4099 62.81 42.12 62.55 42.04Z" fill="#959595"/>
<path id="Vector_2" d="M32.1 8.56006C42.44 8.56006 51.52 15.17 54.69 25.01C54.77 25.27 55.0599 25.4201 55.3199 25.3301C55.5799 25.2501 55.73 24.96 55.64 24.7C52.34 14.45 42.88 7.56006 32.1 7.56006C18.46 7.56006 7.37 18.65 7.37 32.29C7.37 45.93 18.46 57.02 32.1 57.02C42.7 57.02 52.11 50.28 55.52 40.25C55.61 39.99 55.47 39.7001 55.21 39.6201C54.95 39.5401 54.66 39.6699 54.58 39.9299C51.31 49.5599 42.28 56.02 32.11 56.02C19.03 56.02 8.37994 45.38 8.37994 32.29C8.37994 19.2 19.02 8.56006 32.11 8.56006H32.1Z" fill="#959595"/>
<path id="Vector_3" d="M129.28 42.04C129.02 41.95 128.73 42.0901 128.65 42.3501C124.34 55.0401 112.43 63.5701 99.02 63.5701C81.94 63.5701 68.02 49.81 67.75 32.79H74.12C74.39 46.2 85.37 57.02 98.84 57.02C109.44 57.02 118.85 50.28 122.26 40.25C122.35 39.99 122.21 39.7001 121.95 39.6201C121.69 39.5401 121.4 39.6699 121.32 39.9299C118.05 49.5599 109.02 56.02 98.85 56.02C85.93 56.02 75.3999 45.64 75.1299 32.79H77.69C77.97 32.79 78.19 32.57 78.19 32.29C78.19 32.01 77.97 31.79 77.69 31.79H75.1299C75.3999 18.94 85.93 8.56006 98.85 8.56006C109.19 8.56006 118.27 15.17 121.44 25.01C121.52 25.27 121.81 25.4201 122.07 25.3301C122.33 25.2501 122.48 24.96 122.39 24.7C119.09 14.45 109.63 7.56006 98.85 7.56006C85.38 7.56006 74.3999 18.38 74.1299 31.79H67.7599C68.0299 14.77 81.95 1.01001 99.03 1.01001C112.67 1.01001 124.64 9.71994 128.81 22.6899C128.89 22.9499 129.18 23.1 129.44 23.01C129.7 22.93 129.85 22.6401 129.76 22.3801C125.45 9.00013 113.1 0 99.03 0C81.4 0 67.0299 14.21 66.7599 31.78H35.81C35.86 31.14 35.97 30.5099 36.2 29.8999L39.81 20.3901L33.3799 28.27C32.3399 29.54 30.87 30.3899 29.25 30.6499L19.21 32.28L29.25 33.9099C30.87 34.1699 32.3399 35.02 33.3799 36.29L39.81 44.1699L36.2 34.6599C35.97 34.0499 35.86 33.41 35.81 32.77H66.7599C67.0299 50.34 81.4 64.55 99.03 64.55C112.87 64.55 125.16 55.7499 129.6 42.6599C129.69 42.3999 129.55 42.11 129.29 42.03L129.28 42.04Z" fill="#959595"/>
<path id="Vector_4" d="M196.02 42.04C195.76 41.95 195.47 42.0901 195.39 42.3501C191.08 55.0401 179.17 63.5701 165.76 63.5701C148.68 63.5701 134.76 49.81 134.49 32.79H140.86C141.13 46.2 152.11 57.02 165.58 57.02C176.18 57.02 185.59 50.28 189 40.25C189.09 39.99 188.95 39.7001 188.69 39.6201C188.43 39.5401 188.14 39.6699 188.06 39.9299C184.79 49.5599 175.76 56.02 165.59 56.02C152.67 56.02 142.14 45.64 141.87 32.79H144.43C144.71 32.79 144.93 32.57 144.93 32.29C144.93 32.01 144.71 31.79 144.43 31.79H141.87C142.14 18.94 152.67 8.56006 165.59 8.56006C175.93 8.56006 185.01 15.17 188.18 25.01C188.26 25.27 188.55 25.4201 188.81 25.3301C189.07 25.2501 189.22 24.96 189.13 24.7C185.83 14.45 176.37 7.56006 165.59 7.56006C152.12 7.56006 141.14 18.38 140.87 31.79H134.5C134.77 14.77 148.69 1.01001 165.77 1.01001C179.41 1.01001 191.38 9.71994 195.55 22.6899C195.64 22.9499 195.92 23.1 196.18 23.01C196.44 22.93 196.59 22.6401 196.5 22.3801C192.19 9.00013 179.84 0 165.77 0C148.14 0 133.77 14.21 133.5 31.78H102.55C102.6 31.14 102.71 30.5099 102.94 29.8999L106.55 20.3901L100.12 28.27C99.08 29.54 97.61 30.3899 95.99 30.6499L85.95 32.28L95.99 33.9099C97.61 34.1699 99.08 35.02 100.12 36.29L106.55 44.1699L102.94 34.6599C102.71 34.0499 102.6 33.41 102.55 32.77H133.5C133.77 50.34 148.14 64.55 165.77 64.55C179.61 64.55 191.9 55.7499 196.34 42.6599C196.43 42.3999 196.29 42.11 196.03 42.03L196.02 42.04Z" fill="#959595"/>
<path id="Vector_5" d="M211.16 31.79H169.28C169.33 31.15 169.44 30.5199 169.67 29.9099L173.28 20.3999L166.85 28.28C165.81 29.55 164.34 30.3999 162.72 30.6599L152.68 32.29L162.72 33.9199C164.34 34.1799 165.81 35.03 166.85 36.3L173.28 44.1799L169.67 34.6699C169.44 34.0599 169.33 33.42 169.28 32.78H211.16C211.44 32.78 211.66 32.56 211.66 32.28C211.66 32 211.44 31.78 211.16 31.78V31.79Z" fill="#959595"/>
</g>
</g>
</g>
</g>
</g>
<defs>
<clipPath id="clip0_0_1">
<rect width="1920" height="4496" fill="white" transform="translate(-533.09 -2144.48)"/>
</clipPath>
<clipPath id="clip1_0_1">
<rect width="1920" height="4495.38" fill="white" transform="translate(-533.09 -2144.48)"/>
</clipPath>
</defs>
</svg>
