<svg width="1920" height="1040" viewBox="0 0 1920 1040" fill="none" xmlns="http://www.w3.org/2000/svg">
<path id="Vector" d="M1920 0C1920 530.19 1490.19 960 960 960C429.81 960 -0.000244141 530.19 -0.000244141 0" stroke="#F37D2C" stroke-miterlimit="10"/>
<path id="Vector_2" d="M1667.63 739.96C1667.63 792.4 1625.12 834.9 1572.69 834.9C1520.25 834.9 1477.75 792.39 1477.75 739.96C1477.75 687.52 1520.26 645.02 1572.69 645.02C1625.13 645.02 1667.63 687.53 1667.63 739.96Z" stroke="#F37D2C" stroke-miterlimit="10"/>
<path id="Vector_3" d="M-19.1301 414.94C284.03 461.59 516.18 723.59 516.18 1039.81" stroke="#F37D2C" stroke-miterlimit="10"/>
<path id="Vector_4" d="M1622.04 695.2L1630.19 684.27C1634.32 678.73 1633.97 671.05 1629.36 665.91L1624.26 660.22L1635.48 666.45C1639.54 668.7 1644.53 668.41 1648.3 665.69L1659.14 657.88L1652.31 667.5C1649.42 671.57 1648.82 676.85 1650.74 681.47L1656.45 695.2L1649.73 687.86C1645.55 683.3 1638.59 682.67 1633.66 686.4L1622.05 695.2H1622.04Z" fill="#F37D2C"/>
<path id="Vector_5" d="M1484.47 775.12L1491.6 784.71C1494.65 788.81 1500.14 790.22 1504.78 788.09L1514.97 783.43L1504.22 793.02C1501.65 795.32 1501.23 799.19 1503.27 801.97C1506.45 806.32 1510.94 812.2 1513.04 813.83C1513.04 813.83 1505.82 810.66 1500.02 805.65C1496.93 802.98 1492.58 802.33 1488.82 803.91L1477.75 808.56L1487.16 798.58C1488.83 796.81 1489.41 794.27 1488.67 791.95C1487.42 788.06 1485.55 781.62 1484.48 775.12H1484.47Z" fill="#F37D2C"/>
<path id="Vector_6" d="M96.4798 419.94L102.58 435.64C104.09 439.52 100.64 443.49 96.5898 442.56L81.7998 439.13L101.67 448.76C106.67 451.18 110.99 454.81 114.25 459.3L125.36 474.63L121.36 465.31C119.59 461.19 123.54 456.92 127.79 458.37L148.83 465.54L122.12 451.29C117.19 448.66 112.99 444.84 109.9 440.18L96.4798 419.93V419.94Z" fill="#F37D2C"/>
<path id="Vector_7" d="M451.08 760.06L468.24 809.38C469.49 812.98 465.71 816.26 462.33 814.52L413.98 789.7L444.38 812.49C465.36 828.22 481.37 849.67 490.47 874.27L501.68 904.55L489.96 849.12C489.23 845.68 492.78 842.91 495.94 844.45C508.04 850.37 530.94 861.25 540.07 863.52L519.68 849.9C497.17 834.86 478.88 814.32 466.53 790.22L451.08 760.06Z" fill="#F37D2C"/>
</svg>
