<svg viewBox="0 0 1920 335" preserveAspectRatio="none" fill="none" xmlns="http://www.w3.org/2000/svg">
<g id="Desktop" clip-path="url(#clip0_0_1)">
<g id="about test 1" clip-path="url(#clip1_0_1)">
<g id="Group">
<g id="Layer_1">
<g id="Group_2">
<g id="Group_3">
<g id="Group_4">
<g id="Group_5">
<path id="Vector" d="M1723.08 244.65C1722.43 166.28 1722.42 78.37 1723.08 0C1723.74 78.37 1723.73 166.28 1723.08 244.65Z" fill="#F37D2C"/>
<path id="Vector_2" d="M1341.99 294.65C1341.38 200.27 1341.37 94.39 1341.99 0C1342.61 94.38 1342.6 200.26 1341.99 294.65Z" fill="#F37D2C"/>
<path id="Vector_3" d="M960.91 334.65C960.3 233.86 960.29 120.79 960.91 20C961.53 120.79 961.52 233.86 960.91 334.65Z" fill="#F37D2C"/>
<path id="Vector_4" d="M579.82 334.65C579.21 237.06 579.2 127.59 579.82 30C580.44 127.59 580.43 237.06 579.82 334.65Z" fill="#F37D2C"/>
<path id="Vector_5" d="M198.74 334.65C198.09 264.29 198.08 185.36 198.74 115C199.4 185.36 199.39 264.29 198.74 334.65Z" fill="#F37D2C"/>
<path id="Vector_6" d="M1074.75 285.49C729.29 286.07 317.6 286.07 -27.8501 285.49C317.61 284.91 729.3 284.92 1074.75 285.49Z" fill="#F37D2C"/>
<path id="Vector_7" d="M1947.85 51.0297C1565.48 51.6097 1109.82 51.6097 727.47 51.0297C1109.84 50.4497 1565.5 50.4497 1947.85 51.0297Z" fill="#F37D2C"/>
</g>
<g id="Group_6">
<path id="Vector_8" d="M1339.87 285.8L1337.65 285.49L1339.87 285.18C1340.81 285.05 1341.55 284.31 1341.68 283.37L1341.99 281.15L1342.3 283.37C1342.43 284.31 1343.17 285.05 1344.11 285.18L1346.33 285.49L1344.11 285.8C1343.17 285.93 1342.43 286.67 1342.3 287.61L1341.99 289.83L1341.68 287.61C1341.55 286.67 1340.81 285.93 1339.87 285.8Z" fill="#F37D2C"/>
<path id="Vector_9" d="M1710.97 52.7798L1698.3 51.0298L1710.97 49.2798C1716.35 48.5398 1720.58 44.3099 1721.32 38.9299L1723.07 26.26L1724.82 38.9299C1725.56 44.3099 1729.79 48.5398 1735.17 49.2798L1747.84 51.0298L1735.17 52.7798C1729.79 53.5198 1725.56 57.7499 1724.82 63.1299L1723.07 55.7998L1721.32 63.1299C1720.58 57.7499 1716.35 53.5198 1710.97 52.7798Z" fill="#F37D2C"/>
<path id="Vector_10" d="M1329.89 52.7798L1317.22 51.0298L1329.89 49.2798C1335.27 48.5398 1339.5 44.3099 1340.24 38.9299L1341.99 26.26L1343.74 38.9299C1344.48 44.3099 1348.71 48.5398 1354.09 49.2798L1366.76 51.0298L1354.09 52.7798C1348.71 53.5198 1344.48 57.7499 1343.74 63.1299L1341.99 55.7998L1340.24 63.1299C1339.5 57.7499 1335.27 53.5198 1329.89 52.7798Z" fill="#F37D2C"/>
<path id="Vector_11" d="M952.1 286.92L943.07 285.67L952.1 284.42C955.93 283.89 958.95 280.88 959.48 277.04L960.73 268.01L961.98 277.04C962.51 280.87 965.52 283.89 969.36 284.42L978.39 285.67L969.36 286.92C965.53 287.45 962.51 290.46 961.98 294.3L960.73 303.33L959.48 294.3C958.95 290.47 955.94 287.45 952.1 286.92Z" fill="#F37D2C"/>
<path id="Vector_12" d="M952.05 52.3098L942.78 51.0298L952.05 49.75C955.99 49.21 959.08 46.1099 959.63 42.1699L960.91 32.8999L962.19 42.1699C962.73 46.1099 965.83 49.2 969.77 49.75L979.04 51.0298L969.77 52.3098C965.83 52.8498 962.74 55.9499 962.19 59.8899L960.91 49.1599L959.63 59.8899C959.09 55.9499 955.99 52.8598 952.05 52.3098Z" fill="#F37D2C"/>
<path id="Vector_13" d="M567.72 287.24L555.05 285.49L567.72 283.74C573.1 283 577.33 278.77 578.07 273.39L579.82 260.72L581.57 273.39C582.31 278.77 586.54 283 591.92 283.74L604.59 285.49L591.92 287.24C586.54 287.98 582.31 292.21 581.57 297.59L579.82 310.26L578.07 297.59C577.33 292.21 573.1 287.98 567.72 287.24Z" fill="#F37D2C"/>
<path id="Vector_14" d="M575.83 51.6099L571.65 51.0298L575.83 50.45C577.61 50.2 579 48.8098 579.25 47.0298L579.83 42.8499L580.41 47.0298C580.66 48.8098 582.05 50.2 583.83 50.45L588.01 51.0298L583.83 51.6099C582.05 51.8599 580.66 53.2498 580.41 55.0298L579.83 59.21L579.25 55.0298C579 53.2498 577.61 51.8599 575.83 51.6099Z" fill="#F37D2C"/>
<path id="Vector_15" d="M186.63 287.24L173.96 285.49L186.63 283.74C192.01 283 196.24 278.77 196.98 273.39L198.73 260.72L200.48 273.39C201.22 278.77 205.45 283 210.83 283.74L223.5 285.49L210.83 287.24C205.45 287.98 201.22 292.21 200.48 297.59L198.73 310.26L196.98 297.59C196.24 292.21 192.01 287.98 186.63 287.24Z" fill="#F37D2C"/>
</g>
</g>
</g>
</g>
</g>
</g>
</g>
</g>
<defs>
<clipPath id="clip0_0_1">
<rect width="1920" height="4673" fill="white" transform="translate(0 -3698.85)"/>
</clipPath>
<clipPath id="clip1_0_1">
<rect width="1920" height="4679.47" fill="white" transform="translate(0 -3698.85)"/>
</clipPath>
</defs>
</svg>
