<svg width="109" height="109" viewBox="0 0 109 109" fill="none" xmlns="http://www.w3.org/2000/svg">
<path d="M54.42 106.85C25.51 106.85 2 83.33 2 54.43C2 25.53 25.52 2.01001 54.42 2.01001C83.32 2.01001 106.84 25.53 106.84 54.43C106.84 83.33 83.32 106.85 54.42 106.85Z" fill="#F37D2C"/>
<path d="M54.42 4C82.22 4 104.84 26.62 104.84 54.42C104.84 82.22 82.22 104.84 54.42 104.84C26.62 104.84 4 82.22 4 54.42C4 26.62 26.62 4 54.42 4ZM54.42 0C24.36 0 0 24.37 0 54.42C0 84.47 24.37 108.84 54.42 108.84C84.47 108.84 108.84 84.47 108.84 54.42C108.84 24.37 84.47 0 54.42 0Z" fill="#1E1E3C"/>
<g transform="translate(25.55 35.5)">
<path d="M11.8498 26.71L0.819824 37.85H56.9098L46.6898 26.71" fill="#F37D2C"/>
<path d="M11.85 26.71C8.72998 30.09 4.19999 34.81 1.04999 38.08L0.809998 37.51C5.48 37.45 10.16 37.4 14.83 37.4C27.87 37.33 43.93 37.34 56.9 37.5L56.64 38.08C53.28 34.32 49.95 30.54 46.68 26.71C50.4 30.49 54.06 34.32 57.69 38.18L56.9 38.19C43.96 38.35 27.85 38.35 14.83 38.29C9.88999 38.29 4.94 38.23 0 38.17C3.44 34.74 8.28998 30.12 11.85 26.71Z" fill="#1E1E3C"/>
<path d="M11.8498 13.36L0.819824 24.49H56.9098L46.6898 13.36" fill="#F37D2C"/>
<path d="M11.85 13.36C8.72998 16.74 4.19999 21.46 1.04999 24.73L0.809998 24.16C5.48 24.1 10.16 24.05 14.83 24.05C27.87 23.98 43.93 23.99 56.9 24.15L56.64 24.73C53.28 20.97 49.95 17.19 46.68 13.36C50.4 17.14 54.06 20.97 57.69 24.83L56.9 24.84C43.96 25 27.85 25 14.83 24.94C9.88999 24.94 4.94 24.88 0 24.82C3.44 21.39 8.28998 16.77 11.85 13.36Z" fill="#1E1E3C"/>
<path d="M11.8498 0L0.819824 11.14H56.9098L46.6898 0" fill="#F37D2C"/>
<path d="M11.85 0C8.72998 3.38 4.19999 8.09999 1.04999 11.37L0.809998 10.8C5.48 10.74 10.16 10.69 14.83 10.69C27.87 10.62 43.93 10.63 56.9 10.79L56.64 11.37C53.28 7.60999 49.95 3.83 46.68 0C50.4 3.78 54.06 7.60997 57.69 11.47L56.9 11.48C43.96 11.64 27.85 11.64 14.83 11.58C9.88999 11.58 4.94 11.52 0 11.46C3.44 8.02996 8.28998 3.41 11.85 0Z" fill="#1E1E3C"/>
</g>
</svg>
