<svg width="1920" height="1012" viewBox="0 0 1920 1012" fill="none" xmlns="http://www.w3.org/2000/svg">
<path id="Vector" d="M48.5701 -138.81C-55.9899 380.97 280.61 887.1 800.39 991.66C1320.17 1096.22 1826.3 759.62 1930.86 239.84" stroke="#F37D2C" stroke-miterlimit="10"/>
<path id="Vector_2" d="M33.5899 38.68C80.1099 38.68 123.85 56.8 156.75 89.69C189.65 122.59 207.76 166.33 207.76 212.85C207.76 259.37 189.64 303.11 156.75 336.01C123.85 368.91 80.1199 387.02 33.5899 387.02C-12.9401 387.02 -56.6701 368.9 -89.5701 336.01C-122.47 303.11 -140.58 259.38 -140.58 212.85C-140.58 166.32 -122.46 122.59 -89.5701 89.69C-56.6701 56.8 -12.9301 38.68 33.5899 38.68ZM33.5899 37.68C-63.1501 37.68 -141.58 116.11 -141.58 212.85C-141.58 309.59 -63.1501 388.02 33.5899 388.02C130.33 388.02 208.76 309.59 208.76 212.85C208.76 116.11 130.33 37.68 33.5899 37.68Z" fill="#F37D2C"/>
<path id="Vector_3" d="M1580.84 109.3C1475.75 475.8 1698.56 870.97 2066.47 970.79C1978.21 946.39 1894.77 904.55 1822.73 847.98C1602.91 679.46 1502.71 375.25 1580.84 109.31V109.3Z" fill="#F37D2C"/>
<path id="Vector_4" d="M80.9501 359.88L85.6801 368.38C87.8101 372.2 92.1701 374.21 96.4601 373.33L109.93 370.57L98.0101 377.73C94.4501 379.87 92.5901 383.98 93.3401 388.06L95.4301 399.46L88.8701 388.5C86.8901 385.19 83.1801 383.31 79.3401 383.66L67.0601 384.79L76.6201 379.97C80.3301 378.1 82.4801 374.13 82.0401 370.01L80.9401 359.87L80.9501 359.88Z" fill="#F37D2C"/>
</svg>
