<svg width="258" height="94" viewBox="0 0 258 94" fill="none" xmlns="http://www.w3.org/2000/svg">
<g id="Desktop" clip-path="url(#clip0_0_1)">
<g id="home test 1" clip-path="url(#clip1_0_1)">
<g id="Group">
<g id="Group_2">
<g id="Group_3">
<g id="Group_4">
<g id="Group_5">
<path id="Vector" d="M0.00999451 20.1411V36.6111C1.77999 36.6411 3.56 36.6812 5.33 36.7112C5.36 47.3612 5.39999 58.0111 5.42999 68.6611C3.61999 68.7611 1.80999 68.8612 0.00999451 68.9612V85.5312H35.8V68.4712C33.5 68.5712 31.2 68.6813 28.89 68.7812C28.79 61.2812 28.7 53.7812 28.6 46.2812C28.54 40.2412 32.38 36.3713 35.01 36.5513C37.49 36.7213 40.45 40.6112 40.24 45.9812C40.34 59.1612 40.44 72.3412 40.54 85.5212H71.6C71.63 79.8312 71.67 74.1512 71.7 68.4612C69.2 68.4612 66.7 68.4612 64.2 68.4712C64.38 60.8112 64.57 53.1512 64.75 45.4812C64.35 40.5112 67.53 36.9211 70.07 36.8511C72.69 36.7811 76.21 40.4011 75.79 45.6311C75.94 58.9311 76.09 72.2212 76.23 85.5212H106.99V68.7612C104.82 68.7112 102.65 68.6611 100.48 68.6111C100.66 58.8911 100.65 50.6012 100.63 43.9612C100.63 41.3012 100.57 37.291 98.81 32.571C97.9 30.131 96.81 28.2512 96.01 27.0212C94.34 25.0212 90.45 20.9711 84.22 19.3611C75.78 17.1811 66.46 20.3812 59.86 27.4512C59.15 26.4512 53.89 19.2811 44.38 18.5811C33.03 17.7411 26.22 26.8911 25.83 27.4211C25.04 25.0611 24.26 22.7111 23.47 20.3511C15.65 20.2811 7.82 20.2211 0 20.1511L0.00999451 20.1411Z" fill="#1E1E3E"/>
<path id="Vector_2" d="M154.42 48.8812C160.04 48.9512 165.66 49.0111 171.28 49.0811C171.28 39.5811 171.26 30.0811 171.26 20.5811C166.61 20.5311 161.97 20.4812 157.32 20.4312C156.7 22.1112 156.09 23.7813 155.47 25.4613C154.32 24.2613 152.42 22.5513 149.69 21.2213C146.44 19.6313 143.63 19.3612 141.85 19.2012C132.78 18.3912 125.81 22.3513 124.67 23.0213C123.76 23.5613 119.45 26.1512 115.62 31.3812C109.02 40.4012 108.89 50.3712 109.06 54.1612C109.18 56.7812 109.81 70.5812 120.79 79.6512C126.64 84.4812 132.8 85.7913 136.2 86.4813C140.03 87.2513 148.67 88.3913 158.39 84.4813C166.22 81.3313 171.1 76.3711 173.48 73.5811C169.85 69.3811 166.22 65.1813 162.59 60.9813C161.53 62.4013 158.22 66.4512 152.4 67.9012C150.88 68.2812 144.61 69.8512 139.78 66.1812C137.07 64.1212 135.87 61.2111 135.29 59.8211C134.19 57.1511 134.04 54.8811 133.96 53.5611C133.92 52.8311 133.74 49.1912 135.29 44.6912C136.15 42.1912 136.74 40.4811 138.4 38.8211C139.18 38.0311 141.44 35.7713 144.91 35.7813C147.68 35.7813 150.32 37.2413 151.71 39.2613C152.35 40.2013 152.81 42.0912 153.73 45.8712C154.04 47.1412 154.27 48.1812 154.42 48.8812Z" fill="#1E1E3E"/>
<path id="Vector_3" d="M175.22 9.00114C177.34 9.00114 179.47 9.00115 181.59 9.01115C181.56 8.54115 181.55 7.33115 182.36 6.26115C182.6 5.94115 183.01 5.39103 183.78 5.14103C184.69 4.85103 185.75 5.11113 186.37 5.74113C187.23 6.61113 187.05 7.96109 186.94 8.70109C186.52 11.5811 184.52 13.451 180.86 17.091C179.71 18.241 177.78 20.1711 175.36 22.6711C175.34 24.1311 175.33 25.5812 175.31 27.0412H194.88V19.5011C193.24 19.5211 191.59 19.5312 189.95 19.5512V22.0212C188.03 22.0212 186.1 22.0212 184.18 22.0212C184.78 21.3212 185.76 20.181 187.04 18.821C190.93 14.671 192.54 13.7112 193.5 11.0312C194.26 8.89117 194.03 7.21102 193.98 6.88102C193.93 6.55102 193.57 4.35119 191.87 2.55119C189.1 -0.378812 184.47 -0.428978 181.37 0.631022C180.36 0.971022 177.33 2.01096 175.9 5.07096C175.16 6.66096 175.15 8.16115 175.21 9.01115L175.22 9.00114Z" fill="#1E1E3E"/>
<path id="Vector_4" d="M217.62 93.6611C195.55 93.6611 177.6 74.1511 177.6 50.1711C177.6 26.1911 195.55 6.68115 217.62 6.68115C239.69 6.68115 257.64 26.1911 257.64 50.1711C257.64 74.1511 239.69 93.6611 217.62 93.6611ZM217.62 6.86108C195.65 6.86108 177.77 26.2912 177.77 50.1812C177.77 74.0712 195.65 93.5012 217.62 93.5012C239.59 93.5012 257.47 74.0712 257.47 50.1812C257.47 26.2912 239.59 6.86108 217.62 6.86108Z" fill="#1E1E3E"/>
<path id="Vector_5" d="M243.92 22.8013C246.814 22.8013 249.16 20.455 249.16 17.561C249.16 14.6671 246.814 12.321 243.92 12.321C241.026 12.321 238.68 14.6671 238.68 17.561C238.68 20.455 241.026 22.8013 243.92 22.8013Z" fill="#1E1E3E"/>
<path id="Vector_6" d="M250.37 52.351C249.34 53.871 247.18 56.581 243.51 58.431C243.01 58.681 241.29 59.5211 238.82 60.0211C236.92 60.4111 230.69 61.6711 225.43 57.9711C224.38 57.2311 222.7 55.831 221.27 53.351C222.45 53.321 223.64 53.2811 224.83 53.2411C226.48 54.6911 228.14 56.431 229.79 57.861L225.61 53.2111C226.22 53.1911 226.84 53.171 227.45 53.151C229.15 54.621 231.16 56.401 232.85 57.861L228.26 53.111C228.93 53.091 229.61 53.0611 230.29 53.0311C231.99 54.4811 234.01 56.2511 235.7 57.6911C234.28 56.2411 232.52 54.4611 231.09 53.0011C231.84 52.9711 232.59 52.941 233.34 52.901C234.58 53.851 236.11 55.0811 237.34 56.0111C236.38 55.0711 235.11 53.821 234.14 52.871C234.8 52.841 235.45 52.8111 236.11 52.7711C237.55 53.6211 239.22 54.7111 240.61 55.5311C239.47 54.7111 238.03 53.6011 236.84 52.7411C237.62 52.7011 238.4 52.661 239.18 52.621C241.5 53.571 242.71 54.1611 242.86 54.2311C242.74 54.1511 241.71 53.501 239.68 52.601C240.97 52.531 242.26 52.451 243.54 52.381C242.17 52.301 240.98 52.231 239.95 52.171C241.82 51.341 243.07 50.6712 243.31 50.5412C243.06 50.6512 241.63 51.261 239.47 52.141C238.65 52.091 237.93 52.0511 237.31 52.0011C238.5 51.1511 239.93 50.0411 241.07 49.2211C239.69 50.0211 238.03 51.1011 236.6 51.9511C235.79 51.9011 235.16 51.8509 234.67 51.8109C235.63 50.8709 236.87 49.6511 237.81 48.7411C236.63 49.6311 235.16 50.8211 233.94 51.7511C233.45 51.7111 232.67 51.651 231.71 51.601C233.11 50.171 234.79 48.4512 236.17 47.0512C234.54 48.4412 232.6 50.1309 230.93 51.5609C230.22 51.5309 229.6 51.5111 228.86 51.4911L233.33 46.881C231.69 48.301 229.74 50.0211 228.07 51.4711C227.52 51.4611 226.86 51.4511 225.85 51.4411L230.26 46.881C228.64 48.281 226.71 49.991 225.05 51.431C224.03 51.421 222.76 51.411 221.27 51.401C222.48 49.351 223.85 48.1311 224.74 47.4411C230.31 43.1811 237.46 44.8411 239.02 45.2111C240.98 45.6611 242.55 46.3612 243.4 46.7912C246.32 48.2412 248.15 49.9711 248.72 50.5311C249.45 51.2611 249.99 51.921 250.37 52.391V52.351Z" fill="white"/>
<path id="Vector_7" d="M210.17 53.7013C211.19 53.7113 212.46 53.7213 213.94 53.7313C212.73 55.7813 211.36 57.0013 210.47 57.6913C204.9 61.9513 197.75 60.2912 196.19 59.9212C194.23 59.4712 192.67 58.7712 191.81 58.3412C188.89 56.8912 187.06 55.1612 186.5 54.6012C185.77 53.8712 185.22 53.2113 184.85 52.7413C185.89 51.2213 188.04 48.5112 191.71 46.6612C192.2 46.4112 193.93 45.5711 196.4 45.0711C198.3 44.6811 204.53 43.4212 209.79 47.1212C210.84 47.8612 212.52 49.2613 213.95 51.7413C212.77 51.7713 211.59 51.8112 210.4 51.8512C208.75 50.4012 207.09 48.6613 205.44 47.2313L209.61 51.8812C209 51.9012 208.38 51.9213 207.77 51.9413C206.07 50.4713 204.06 48.6913 202.37 47.2313L206.96 51.9813C206.29 52.0013 205.61 52.0311 204.94 52.0611C203.24 50.6111 201.22 48.8412 199.53 47.4012C200.95 48.8512 202.71 50.6312 204.14 52.0912C203.39 52.1212 202.64 52.1513 201.89 52.1913C200.65 51.2413 199.11 50.0111 197.89 49.0811C198.85 50.0211 200.13 51.2713 201.1 52.2213C200.44 52.2513 199.79 52.2811 199.13 52.3211C197.69 51.4711 196.02 50.3811 194.63 49.5611C195.78 50.3811 197.21 51.4912 198.4 52.3512C197.62 52.3912 196.84 52.4313 196.06 52.4713C193.75 51.5213 192.53 50.9312 192.38 50.8612C192.5 50.9412 193.53 51.5913 195.56 52.4913C194.27 52.5613 192.98 52.6413 191.7 52.7113C193.07 52.7913 194.26 52.8612 195.29 52.9212C193.42 53.7612 192.16 54.4314 191.93 54.5514C192.18 54.4414 193.61 53.8313 195.77 52.9513C196.59 53.0013 197.3 53.0412 197.92 53.0912C196.74 53.9412 195.3 55.0512 194.16 55.8712C195.54 55.0712 197.2 53.9912 198.62 53.1412C199.43 53.1912 200.06 53.2413 200.55 53.2813C199.59 54.2213 198.35 55.4412 197.42 56.3512C198.6 55.4612 200.07 54.2712 201.29 53.3412C201.78 53.3812 202.55 53.4413 203.52 53.4913C202.12 54.9213 200.44 56.6413 199.06 58.0413C200.7 56.6513 202.63 54.9613 204.3 53.5313C205.01 53.5613 205.63 53.5812 206.37 53.6012L201.9 58.2113C203.54 56.7913 205.49 55.0712 207.16 53.6212C207.71 53.6312 208.37 53.6412 209.38 53.6512L204.97 58.2113C206.6 56.8013 208.52 55.1012 210.18 53.6612L210.17 53.7013Z" fill="white"/>
<path id="Vector_8" d="M217.26 19.2812C218.81 20.3312 221.57 22.5312 223.46 26.2812C223.72 26.7912 224.58 28.551 225.09 31.071C225.48 33.011 226.77 39.3612 222.99 44.7312C222.24 45.8012 220.8 47.5112 218.28 48.9712C218.25 47.7712 218.21 46.5611 218.17 45.3411C219.65 43.6511 221.42 41.9612 222.88 40.2812L218.14 44.5413C218.12 43.9113 218.1 43.2911 218.07 42.6611C219.57 40.9211 221.39 38.8711 222.88 37.1511L218.04 41.8411C218.02 41.1511 217.99 40.4612 217.96 39.7712C219.44 38.0312 221.24 35.9812 222.71 34.2512C221.23 35.7012 219.41 37.4912 217.92 38.9512C217.89 38.1912 217.85 37.4211 217.82 36.6511C218.78 35.3811 220.04 33.821 220.99 32.571C220.03 33.551 218.75 34.8511 217.78 35.8411C217.75 35.1711 217.71 34.5011 217.68 33.8311C218.55 32.3611 219.66 30.6612 220.49 29.2412C219.65 30.4112 218.52 31.8711 217.64 33.0811C217.6 32.2811 217.56 31.4912 217.52 30.6912C218.48 28.3312 219.09 27.0912 219.16 26.9312C219.08 27.0512 218.41 28.1111 217.49 30.1711C217.42 28.8511 217.34 27.5412 217.26 26.2312C217.18 27.6312 217.11 28.8411 217.04 29.9011C216.19 27.9911 215.5 26.7212 215.38 26.4812C215.49 26.7312 216.12 28.2011 217.01 30.3911C216.96 31.2311 216.91 31.9611 216.87 32.5911C216 31.3811 214.87 29.9212 214.03 28.7512C214.85 30.1612 215.95 31.851 216.82 33.311C216.76 34.141 216.72 34.7812 216.67 35.2812C215.71 34.3012 214.47 33.0411 213.53 32.0811C214.44 33.2911 215.65 34.7912 216.6 36.0312C216.56 36.5312 216.5 37.321 216.45 38.311C214.99 36.881 213.24 35.1612 211.81 33.7612C213.23 35.4312 214.96 37.4011 216.41 39.1011C216.38 39.8211 216.36 40.4612 216.34 41.2212L211.63 36.6611C213.08 38.3411 214.84 40.3312 216.32 42.0312C216.31 42.5913 216.3 43.2713 216.29 44.3013L211.64 39.8013C213.07 41.4613 214.81 43.4211 216.28 45.1111C216.27 46.1511 216.26 47.4512 216.25 48.9612C214.16 47.7212 212.91 46.3311 212.21 45.4211C207.87 39.7411 209.56 32.4411 209.93 30.8511C210.39 28.8511 211.11 27.2511 211.54 26.3811C213.02 23.4011 214.78 21.5312 215.35 20.9512C216.09 20.2112 216.76 19.6512 217.25 19.2712L217.26 19.2812Z" stroke="#1E1E3E" stroke-width="0.25" stroke-miterlimit="10"/>
<path id="Vector_9" d="M217.64 85.2913C216.09 84.2413 213.33 82.0413 211.44 78.2913C211.18 77.7813 210.32 76.0212 209.81 73.5012C209.42 71.5612 208.13 65.2111 211.91 59.8411C212.66 58.7711 214.1 57.0611 216.62 55.6011C216.65 56.8011 216.69 58.0112 216.73 59.2312C215.25 60.9212 213.48 62.6113 212.02 64.2913L216.76 60.0312C216.78 60.6613 216.8 61.2811 216.83 61.9111C215.33 63.6511 213.51 65.7011 212.02 67.4211L216.86 62.7312C216.88 63.4212 216.91 64.1113 216.94 64.8013C215.46 66.5413 213.66 68.591 212.19 70.321C213.67 68.871 215.49 67.0811 216.98 65.6211C217.01 66.3811 217.05 67.1511 217.08 67.9211C216.12 69.1911 214.86 70.7512 213.91 72.0012C214.87 71.0212 216.15 69.7212 217.12 68.7312C217.15 69.4012 217.19 70.0712 217.22 70.7412C216.35 72.2112 215.24 73.9111 214.41 75.3311C215.25 74.1611 216.38 72.7012 217.26 71.4912C217.3 72.2912 217.34 73.0811 217.38 73.8811C216.42 76.2411 215.81 77.4811 215.74 77.6411C215.82 77.5211 216.49 76.4611 217.41 74.4011C217.48 75.7211 217.56 77.0311 217.64 78.3411C217.72 76.9411 217.79 75.7311 217.86 74.6711C218.71 76.5811 219.4 77.8511 219.52 78.0911C219.41 77.8411 218.78 76.3712 217.89 74.1812C217.94 73.3412 217.99 72.6112 218.03 71.9812C218.9 73.1912 220.03 74.651 220.87 75.821C220.05 74.411 218.95 72.7212 218.08 71.2612C218.14 70.4312 218.18 69.7913 218.23 69.2913C219.19 70.2713 220.43 71.5312 221.37 72.4912C220.46 71.2812 219.25 69.7813 218.3 68.5413C218.34 68.0413 218.4 67.2512 218.45 66.2612C219.91 67.6912 221.66 69.411 223.09 70.811C221.67 69.141 219.94 67.1712 218.49 65.4712C218.52 64.7512 218.54 64.1111 218.56 63.3511L223.27 67.9111C221.82 66.2311 220.06 64.2413 218.58 62.5413C218.59 61.9813 218.6 61.3012 218.61 60.2712L223.26 64.7712C221.83 63.1112 220.09 61.1512 218.62 59.4612C218.63 58.4212 218.64 57.1211 218.65 55.6111C220.74 56.8511 221.99 58.2411 222.69 59.1511C227.03 64.8311 225.34 72.1312 224.97 73.7212C224.51 75.7212 223.79 77.3212 223.36 78.1912C221.88 81.1712 220.12 83.0411 219.55 83.6211C218.81 84.3611 218.14 84.9213 217.65 85.3013L217.64 85.2913Z" fill="#007A48"/>
</g>
</g>
</g>
</g>
</g>
</g>
</g>
<defs>
<clipPath id="clip0_0_1">
<rect width="1920" height="4496" fill="white" transform="translate(-145.25 -3984.6)"/>
</clipPath>
<clipPath id="clip1_0_1">
<rect width="1920" height="4495.38" fill="white" transform="translate(-145.25 -3984.6)"/>
</clipPath>
</defs>
</svg>
