<svg width="148" height="54" viewBox="0 0 148 54" fill="none" xmlns="http://www.w3.org/2000/svg">
<g id="Desktop" clip-path="url(#clip0_0_1)">
<g id="home test 1">
<g id="Group">
<g id="Group_2">
<g id="Group_3">
<path id="Vector" d="M0 11.5187V20.9187C1.01 20.9387 2.03001 20.9587 3.04001 20.9787C3.06001 27.0587 3.08001 33.1387 3.10001 39.2187C2.07001 39.2787 1.04 39.3287 0 39.3887V48.8487H20.44V39.1087C19.13 39.1687 17.81 39.2287 16.5 39.2887C16.44 35.0087 16.39 30.7287 16.33 26.4387C16.3 22.9887 18.49 20.7787 19.99 20.8887C21.4 20.9887 23.1 23.2087 22.98 26.2687C23.04 33.7987 23.09 41.3187 23.15 48.8487H40.89C40.91 45.5987 40.93 42.3587 40.95 39.1087C39.52 39.1087 38.09 39.1087 36.67 39.1087C36.77 34.7387 36.88 30.3587 36.98 25.9887C36.75 23.1487 38.57 21.0987 40.02 21.0587C41.52 21.0187 43.53 23.0887 43.29 26.0687C43.37 33.6587 43.46 41.2487 43.54 48.8387H61.11V39.2687C59.87 39.2387 58.63 39.2087 57.39 39.1887C57.49 33.6387 57.49 28.9087 57.47 25.1087C57.47 23.5887 57.44 21.2987 56.43 18.6087C55.91 17.2187 55.29 16.1387 54.83 15.4387C53.88 14.2987 51.66 11.9787 48.1 11.0587C43.28 9.80869 37.96 11.6387 34.19 15.6787C33.78 15.1087 30.78 11.0087 25.35 10.6087C18.87 10.1287 14.98 15.3487 14.76 15.6587C14.31 14.3087 13.86 12.9687 13.41 11.6187C8.94 11.5787 4.48001 11.5387 0.0100098 11.5087L0 11.5187Z" fill="#1E1E3C"/>
<path id="Vector_2" d="M88.17 27.9287C91.38 27.9687 94.59 28.0087 97.8 28.0387C97.8 22.6187 97.8 17.1887 97.79 11.7687C95.14 11.7387 92.48 11.7087 89.83 11.6887C89.48 12.6487 89.13 13.5987 88.77 14.5587C88.11 13.8687 87.03 12.8987 85.47 12.1387C83.61 11.2287 82.01 11.0787 80.99 10.9887C75.81 10.5287 71.83 12.7887 71.18 13.1687C70.66 13.4787 68.2 14.9587 66.01 17.9387C62.24 23.0887 62.17 28.7887 62.27 30.9487C62.34 32.4487 62.7 40.3287 68.97 45.4987C72.31 48.2587 75.83 49.0087 77.77 49.3987C79.96 49.8387 84.89 50.4887 90.44 48.2587C94.91 46.4587 97.7 43.6287 99.05 42.0387C96.98 39.6387 94.91 37.2387 92.83 34.8487C92.22 35.6587 90.33 37.9687 87.01 38.7987C86.14 39.0187 82.56 39.9087 79.8 37.8187C78.25 36.6387 77.57 34.9787 77.24 34.1887C76.61 32.6587 76.52 31.3687 76.48 30.6087C76.46 30.1887 76.36 28.1087 77.24 25.5387C77.73 24.1087 78.07 23.1387 79.01 22.1887C79.46 21.7387 80.75 20.4487 82.73 20.4487C84.31 20.4487 85.82 21.2787 86.62 22.4387C86.99 22.9787 87.25 24.0587 87.77 26.2087C87.95 26.9287 88.08 27.5287 88.16 27.9287H88.17Z" fill="#1E1E3C"/>
<path id="Vector_3" d="M100.05 5.14869C101.26 5.14869 102.48 5.14869 103.69 5.14869C103.67 4.87869 103.67 4.18869 104.13 3.57869C104.27 3.39869 104.5 3.07869 104.94 2.93869C105.46 2.77869 106.06 2.91869 106.42 3.27869C106.91 3.76869 106.81 4.54869 106.75 4.96869C106.51 6.61869 105.37 7.67869 103.28 9.75869C102.62 10.4187 101.52 11.5187 100.14 12.9387C100.14 13.7687 100.12 14.5987 100.11 15.4387H111.29V11.1387C110.35 11.1387 109.41 11.1587 108.47 11.1687V12.5787C107.37 12.5787 106.27 12.5787 105.18 12.5787C105.52 12.1787 106.09 11.5287 106.81 10.7487C109.03 8.37869 109.95 7.82869 110.5 6.29869C110.93 5.07869 110.8 4.11869 110.77 3.92869C110.74 3.73869 110.54 2.48869 109.57 1.45869C107.99 -0.221313 105.35 -0.241312 103.57 0.358688C102.99 0.558688 101.26 1.14869 100.45 2.88869C100.03 3.79869 100.02 4.65869 100.06 5.13869L100.05 5.14869Z" fill="#1E1E3C"/>
<path id="Vector_4" d="M124.26 53.4987C111.66 53.4987 101.41 42.3587 101.41 28.6687C101.41 14.9787 111.66 3.83869 124.26 3.83869C136.86 3.83869 147.11 14.9787 147.11 28.6687C147.11 42.3587 136.86 53.4987 124.26 53.4987ZM124.26 3.92869C111.71 3.92869 101.51 15.0287 101.51 28.6587C101.51 42.2887 111.72 53.3887 124.26 53.3887C136.8 53.3887 147.01 42.2887 147.01 28.6587C147.01 15.0287 136.8 3.92869 124.26 3.92869Z" fill="#1E1E3C"/>
<path id="Vector_5" d="M139.27 13.0387C140.921 13.0387 142.26 11.7 142.26 10.0487C142.26 8.39736 140.921 7.05869 139.27 7.05869C137.619 7.05869 136.28 8.39736 136.28 10.0487C136.28 11.7 137.619 13.0387 139.27 13.0387Z" fill="#1E1E3C"/>
<path id="Vector_6" d="M142.95 29.9087C142.36 30.7787 141.13 32.3187 139.03 33.3787C138.75 33.5287 137.76 34.0087 136.35 34.2887C135.27 34.5087 131.71 35.2287 128.7 33.1187C128.1 32.6987 127.14 31.8987 126.33 30.4787C127 30.4587 127.68 30.4387 128.36 30.4187C129.3 31.2487 130.25 32.2387 131.19 33.0587L128.81 30.4087C129.16 30.3987 129.51 30.3887 129.86 30.3687C130.83 31.2087 131.98 32.2287 132.95 33.0587L130.33 30.3487C130.72 30.3387 131.1 30.3187 131.49 30.2987C132.46 31.1287 133.61 32.1387 134.58 32.9587C133.77 32.1287 132.77 31.1087 131.95 30.2787C132.38 30.2587 132.81 30.2387 133.24 30.2187C133.95 30.7587 134.82 31.4587 135.52 31.9887C134.97 31.4487 134.24 30.7387 133.69 30.1987C134.07 30.1787 134.44 30.1587 134.81 30.1387C135.63 30.6287 136.59 31.2487 137.38 31.7087C136.73 31.2387 135.91 30.6087 135.23 30.1187C135.68 30.0987 136.12 30.0687 136.57 30.0487C137.89 30.5887 138.59 30.9287 138.67 30.9687C138.6 30.9187 138.01 30.5487 136.85 30.0387C137.59 29.9987 138.32 29.9587 139.05 29.9087C138.27 29.8687 137.59 29.8187 137 29.7887C138.07 29.3087 138.78 28.9287 138.92 28.8587C138.78 28.9187 137.96 29.2687 136.73 29.7687C136.26 29.7387 135.85 29.7187 135.5 29.6887C136.18 29.1987 136.99 28.5687 137.65 28.0987C136.86 28.5587 135.91 29.1687 135.1 29.6587C134.64 29.6287 134.28 29.5987 134 29.5787C134.55 29.0387 135.26 28.3487 135.79 27.8187C135.11 28.3287 134.27 29.0087 133.58 29.5387C133.3 29.5087 132.86 29.4787 132.3 29.4487C133.1 28.6287 134.06 27.6487 134.85 26.8487C133.92 27.6487 132.81 28.6087 131.86 29.4287C131.46 29.4087 131.1 29.3987 130.68 29.3887L133.23 26.7587C132.29 27.5687 131.18 28.5487 130.22 29.3787C129.9 29.3787 129.53 29.3687 128.95 29.3587L131.47 26.7587C130.54 27.5587 129.44 28.5287 128.5 29.3587C127.92 29.3587 127.19 29.3487 126.34 29.3387C127.03 28.1687 127.81 27.4687 128.32 27.0787C131.5 24.6487 135.58 25.5987 136.48 25.7987C137.6 26.0587 138.49 26.4587 138.98 26.6987C140.65 27.5287 141.69 28.5087 142.02 28.8287C142.44 29.2387 142.75 29.6187 142.96 29.8887L142.95 29.9087Z" stroke="#1E1E3C" stroke-width="0.1" stroke-miterlimit="10"/>
<path id="Vector_7" d="M120 30.6787C120.58 30.6787 121.31 30.6887 122.15 30.6987C121.46 31.8687 120.68 32.5687 120.17 32.9587C116.99 35.3887 112.91 34.4387 112.01 34.2387C110.89 33.9787 110 33.5787 109.51 33.3387C107.84 32.5087 106.8 31.5287 106.48 31.2087C106.06 30.7987 105.75 30.4187 105.54 30.1487C106.13 29.2787 107.36 27.7387 109.46 26.6787C109.74 26.5287 110.73 26.0487 112.14 25.7687C113.22 25.5487 116.78 24.8287 119.79 26.9387C120.39 27.3587 121.35 28.1587 122.16 29.5787C121.49 29.5987 120.81 29.6187 120.13 29.6387C119.19 28.8087 118.24 27.8187 117.3 26.9987L119.68 29.6487C119.33 29.6587 118.98 29.6687 118.63 29.6887C117.66 28.8487 116.51 27.8287 115.54 26.9987L118.16 29.7087C117.78 29.7187 117.39 29.7387 117 29.7587C116.03 28.9287 114.87 27.9187 113.91 27.0987C114.72 27.9287 115.72 28.9487 116.54 29.7787C116.11 29.7987 115.68 29.8187 115.25 29.8387C114.54 29.2987 113.66 28.5987 112.97 28.0687C113.52 28.6087 114.25 29.3187 114.8 29.8587C114.42 29.8787 114.05 29.8987 113.68 29.9187C112.86 29.4287 111.9 28.8087 111.11 28.3487C111.76 28.8187 112.58 29.4487 113.26 29.9387C112.81 29.9587 112.37 29.9887 111.92 30.0087C110.6 29.4687 109.9 29.1287 109.82 29.0887C109.89 29.1387 110.48 29.5087 111.64 30.0187C110.9 30.0587 110.17 30.0987 109.44 30.1487C110.22 30.1887 110.9 30.2387 111.49 30.2687C110.42 30.7487 109.7 31.1287 109.57 31.1987C109.71 31.1387 110.53 30.7887 111.76 30.2887C112.23 30.3187 112.63 30.3387 112.99 30.3687C112.31 30.8587 111.5 31.4887 110.84 31.9587C111.63 31.4987 112.57 30.8887 113.39 30.3987C113.85 30.4287 114.21 30.4587 114.49 30.4787C113.94 31.0187 113.24 31.7087 112.7 32.2387C113.38 31.7287 114.22 31.0487 114.91 30.5187C115.19 30.5387 115.63 30.5787 116.19 30.6087C115.39 31.4287 114.43 32.4087 113.64 33.2087C114.57 32.4087 115.68 31.4487 116.63 30.6287C117.03 30.6487 117.39 30.6587 117.81 30.6687L115.26 33.2987C116.2 32.4887 117.31 31.5087 118.26 30.6787C118.58 30.6787 118.95 30.6887 119.53 30.6987L117.01 33.2987C117.94 32.4987 119.04 31.5287 119.99 30.6987L120 30.6787Z" stroke="#1E1E3C" stroke-width="0.1" stroke-miterlimit="10"/>
<path id="Vector_8" d="M124.05 11.0287C124.94 11.6287 126.51 12.8887 127.59 15.0287C127.74 15.3187 128.23 16.3287 128.52 17.7587C128.75 18.8687 129.48 22.4887 127.32 25.5587C126.89 26.1687 126.07 27.1487 124.63 27.9787C124.61 27.2887 124.59 26.5987 124.56 25.9087C125.41 24.9487 126.42 23.9787 127.25 23.0187L124.54 25.4487C124.53 25.0887 124.52 24.7387 124.5 24.3787C125.36 23.3887 126.39 22.2187 127.24 21.2287L124.48 23.9087C124.47 23.5187 124.45 23.1187 124.43 22.7287C125.28 21.7387 126.3 20.5587 127.14 19.5787C126.29 20.4087 125.26 21.4287 124.41 22.2587C124.39 21.8187 124.37 21.3887 124.35 20.9487C124.9 20.2287 125.62 19.3287 126.16 18.6187C125.61 19.1787 124.88 19.9187 124.33 20.4887C124.31 20.1087 124.29 19.7287 124.27 19.3387C124.77 18.4987 125.4 17.5287 125.88 16.7187C125.4 17.3887 124.75 18.2187 124.25 18.9087C124.23 18.4487 124.2 17.9987 124.18 17.5487C124.73 16.1987 125.07 15.4887 125.12 15.4087C125.07 15.4787 124.69 16.0787 124.17 17.2587C124.13 16.5087 124.09 15.7587 124.04 15.0087C123.99 15.8087 123.95 16.4987 123.92 17.0987C123.43 16.0087 123.04 15.2787 122.97 15.1487C123.03 15.2887 123.39 16.1287 123.9 17.3887C123.87 17.8687 123.84 18.2787 123.82 18.6487C123.32 17.9587 122.68 17.1287 122.2 16.4587C122.67 17.2687 123.3 18.2287 123.79 19.0587C123.76 19.5287 123.73 19.8987 123.71 20.1887C123.16 19.6287 122.45 18.9087 121.92 18.3587C122.44 19.0487 123.13 19.9087 123.68 20.6187C123.65 20.8987 123.62 21.3587 123.59 21.9187C122.75 21.0987 121.76 20.1187 120.94 19.3187C121.75 20.2687 122.74 21.3987 123.57 22.3687C123.55 22.7787 123.54 23.1487 123.53 23.5787L120.84 20.9787C121.67 21.9387 122.67 23.0687 123.52 24.0487C123.52 24.3687 123.51 24.7587 123.5 25.3487L120.84 22.7787C121.66 23.7287 122.65 24.8487 123.49 25.8087C123.49 26.3987 123.48 27.1487 123.47 28.0087C122.28 27.2987 121.56 26.5087 121.17 25.9887C118.69 22.7487 119.66 18.5787 119.87 17.6687C120.13 16.5287 120.54 15.6187 120.79 15.1187C121.63 13.4187 122.64 12.3487 122.97 12.0187C123.39 11.5987 123.78 11.2787 124.06 11.0587L124.05 11.0287Z" fill="#F37D2C"/>
<path id="Vector_9" d="M124.26 48.7187C123.37 48.1187 121.8 46.8587 120.72 44.7187C120.57 44.4287 120.08 43.4187 119.79 41.9887C119.56 40.8787 118.83 37.2587 120.99 34.1887C121.42 33.5787 122.24 32.5987 123.68 31.7687C123.7 32.4587 123.72 33.1487 123.75 33.8387C122.9 34.7987 121.89 35.7687 121.06 36.7287L123.77 34.2987C123.78 34.6587 123.79 35.0087 123.81 35.3687C122.95 36.3587 121.92 37.5287 121.07 38.5187L123.83 35.8387C123.84 36.2287 123.86 36.6287 123.88 37.0187C123.03 38.0087 122.01 39.1887 121.17 40.1687C122.02 39.3387 123.05 38.3187 123.9 37.4887C123.92 37.9287 123.94 38.3587 123.96 38.7987C123.41 39.5187 122.69 40.4187 122.15 41.1287C122.7 40.5687 123.43 39.8287 123.98 39.2587C124 39.6387 124.02 40.0187 124.04 40.4087C123.54 41.2487 122.91 42.2187 122.43 43.0287C122.91 42.3587 123.56 41.5287 124.06 40.8387C124.08 41.2987 124.11 41.7487 124.13 42.1987C123.58 43.5487 123.24 44.2587 123.19 44.3387C123.24 44.2687 123.62 43.6687 124.14 42.4887C124.18 43.2387 124.22 43.9887 124.27 44.7387C124.32 43.9387 124.36 43.2487 124.39 42.6487C124.88 43.7387 125.27 44.4687 125.34 44.5987C125.28 44.4587 124.92 43.6187 124.41 42.3587C124.44 41.8787 124.47 41.4687 124.49 41.0987C124.99 41.7887 125.63 42.6187 126.11 43.2887C125.64 42.4787 125.01 41.5187 124.52 40.6887C124.55 40.2187 124.58 39.8487 124.6 39.5587C125.15 40.1187 125.86 40.8387 126.39 41.3887C125.87 40.6987 125.18 39.8387 124.63 39.1287C124.66 38.8487 124.69 38.3887 124.72 37.8287C125.56 38.6487 126.55 39.6287 127.37 40.4287C126.56 39.4787 125.57 38.3487 124.74 37.3787C124.76 36.9687 124.77 36.5987 124.78 36.1687L127.47 38.7687C126.64 37.8087 125.64 36.6787 124.79 35.6987C124.79 35.3787 124.8 34.9887 124.81 34.3987L127.47 36.9687C126.65 36.0187 125.66 34.8987 124.82 33.9387C124.82 33.3487 124.83 32.5987 124.84 31.7387C126.03 32.4487 126.75 33.2387 127.14 33.7587C129.62 36.9987 128.65 41.1687 128.44 42.0787C128.18 43.2187 127.77 44.1287 127.52 44.6287C126.68 46.3287 125.67 47.3987 125.34 47.7287C124.92 48.1487 124.53 48.4687 124.25 48.6887L124.26 48.7187Z" fill="#18784C"/>
</g>
</g>
</g>
</g>
</g>
<defs>
<clipPath id="clip0_0_1">
<rect width="1920" height="4496" fill="white" transform="translate(-187.7 -31.8013)"/>
</clipPath>
</defs>
</svg>
